<svg height="400" style="style=&quot;outline: 5px solid #800000;&quot;" viewBox="0 0 400 400" width="400" xmlns="http://www.w3.org/2000/svg">
<rect fill="#ffffff" height="400" width="400" x="0" y="0"/>
<rect fill="#ffffff" fill-opacity="0.0" height="400" stroke="#cccccc" stroke-width="15" width="400" x="0" y="0"/>
<path d="M200,200 L200,240 L200,240 L-120,240 L360,240 L560,240 L200,240 L200,200 L200,-160 L200,400 L200,640 L200,120 L200,120 L200,120 L200,320 L200,560 L200,0 L200,-40 L200,200 L200,200 L200,0 L200,0 L0,0 L0,0 L0,280 L0,320 L200,200 L200,200 L440,200 L200,200 L200,160 L200,-80 L200,320 L200,320 L200,200 L200,200 L200,200 L200,200 L200,200 L200,40 L200,40 L40,40 L40,40 L40,-40 L40,480 L40,-160 L40,200 L40,200 L40,0 L40,-200 L40,280 L40,360 L40,480 L40,-80 L40,440 L40,200 L160,200 L160,200 L160,160 L160,120 L160,-200 L160,240 L160,320 L160,320 L160,320" fill="none" stroke="#2f2f2f" stroke-opacity="0.9" stroke-width="5"/>
</svg>