<svg height="400" style="style=&quot;outline: 5px solid #800000;&quot;" viewBox="0 0 400 400" width="400" xmlns="http://www.w3.org/2000/svg">
<rect fill="#ffffff" height="400" width="400" x="0" y="0"/>
<path d="M200,200 L200,400 L200,480 L200,200 L200,200 L200,200 L200,200 L200,200 L200,200 L200,200 L80,200 L80,200 L80,200 L-160,200 L200,200 L200,480 L200,80 L200,-80 L200,200 L200,200 L200,360 L200,200 L200,360 L200,360 L320,360 L640,360 L200,360 L200,80 L200,80 L-120,80 L400,80 L760,80 L120,80 L120,80 L120,40 L120,40 L0,40 L-280,40 L200,40 L200,-80 L200,520 L200,200 L200,200 L200,200 L240,200 L480,200 L0,200 L-320,200 L200,200 L200,480 L200,200 L200,200 L200,200 L200,200 L200,200 L200,440 L200,200 L200,200 L440,200 L80,200 L-160,200 L320,200 L480,200 L200,200 L200,200" fill="none" stroke="#2f2f2f" stroke-opacity="0.9" stroke-width="5"/>
<rect fill="#ffffff" fill-opacity="0.0" height="400" stroke="#cccccc" stroke-width="15" width="400" x="0" y="0"/>
</svg>